<?xml version="1.0" encoding="UTF-8" standalone="no"?>
<svg
   xmlns:dc="http://purl.org/dc/elements/1.1/"
   xmlns:cc="http://creativecommons.org/ns#"
   xmlns:rdf="http://www.w3.org/1999/02/22-rdf-syntax-ns#"
   xmlns:svg="http://www.w3.org/2000/svg"
   xmlns="http://www.w3.org/2000/svg"
   xmlns:sodipodi="http://sodipodi.sourceforge.net/DTD/sodipodi-0.dtd"
   xmlns:inkscape="http://www.inkscape.org/namespaces/inkscape"
   id="svg75"
   version="1.2"
   viewBox="0 0 857.99998 240.00001"
   height="240pt"
   width="858pt"
   sodipodi:docname="hustctext.svg"
   inkscape:version="1.0 (1.0+r73+1)">
  <sodipodi:namedview
     inkscape:document-rotation="0"
     pagecolor="#ffffff"
     bordercolor="#666666"
     borderopacity="1"
     objecttolerance="10"
     gridtolerance="10"
     guidetolerance="10"
     inkscape:pageopacity="0"
     inkscape:pageshadow="2"
     inkscape:window-width="1280"
     inkscape:window-height="738"
     id="namedview2818"
     showgrid="false"
     inkscape:zoom="0.3667706"
     inkscape:cx="1302.7582"
     inkscape:cy="611.1368"
     inkscape:window-x="0"
     inkscape:window-y="25"
     inkscape:window-maximized="1"
     inkscape:current-layer="svg75" />
  <metadata
     id="metadata81">
    <rdf:RDF>
      <cc:Work
         rdf:about="">
        <dc:format>image/svg+xml</dc:format>
        <dc:type
           rdf:resource="http://purl.org/dc/dcmitype/StillImage" />
        <dc:title></dc:title>
      </cc:Work>
    </rdf:RDF>
  </metadata>
  <defs
     id="defs79">
    <rect
       x="831.58069"
       y="504.05844"
       width="730.04022"
       height="77.208321"
       id="rect2854" />
  </defs>
  <g
     id="g76">
    <text
       style="font-style:normal;font-weight:normal;font-size:30px;line-height:1.25;font-family:sans-serif;white-space:pre;shape-inside:url(#rect2854);fill:#f31801;fill-opacity:1;stroke:none;"
       id="text2852"
       xml:space="preserve" />
    <g
       transform="translate(-768.0585,-305.56311)"
       id="g2850">
      <path
         style="fill:#f31700;fill-opacity:1;fill-rule:evenodd;stroke:none"
         d="m 885.71094,393.31641 -2.26172,1.64062 -2.50781,0.81641 -2.69922,1.99218 -3.32422,1.58985 -3.67969,2.57031 -1.54297,0.19531 -1.86328,-0.74218 -1.10547,-0.91407 -0.48047,-0.80078 0.96485,-1.01562 2.58984,-1.42969 4.62109,-1.39453 3.98438,-1.5586 3.69531,-1.92968 2.98828,-0.53125 1.0586,0.46484 z m -13.74219,22.04687 -2.29688,1.91016 h -2.34765 l -0.0312,-0.32813 -0.72656,-1.49609 -0.1875,-1.92578 0.60937,-1.09375 -0.66016,-1.46875 0.082,-1.0625 1.02343,-1.09375 0.46875,-0.32032 1.15625,1.33594 1.42969,2.10156 1.49219,2.29688 z m -6.08594,-25.39844 0.35156,-4.91015 0.24219,-3.13282 -0.0273,-2.58593 0.43359,-1.39844 1.07422,-1.12891 h 1.23828 l 0.9961,0.51172 1.37109,0.16016 2.51953,0.32031 0.71875,0.38672 0.67578,1.04687 -0.33984,1.73047 -0.23828,2.55469 -0.69532,2.89453 -1.25,2.50391 -1.59375,1.91406 -2.60156,1.01172 -1.57422,0.33594 -0.82422,-0.66016 z m -13.40625,30.6211 -0.48047,1.58984 -2.07422,1.32031 -5.8125,2.26563 -6.93359,2.26172 -5.08984,1.75 -1.83203,-0.0977 0.0117,-0.55078 2.82422,-2.25 6.07032,-3.17969 3.85156,-2.30859 4.61328,-2.53906 2.60156,-1.73438 1.01563,-0.58203 0.70703,0.3125 0.67187,0.99609 z m 25.42578,-74.8125 2.5586,-4.17969 0.86718,-1.39453 1.21094,-0.72656 0.91406,0.38281 1.22657,1.17969 0.58203,1.73828 -0.24219,1.59375 -1.87891,2.23437 -2.37109,1.14453 -1.37891,0.4336 -1.41796,-0.48047 -0.3125,-0.72266 z m 29.73828,40.76953 -1.17578,-2.80469 -3.01953,-3.16406 -2.69922,-1.73828 -2.24609,-0.41797 -3.01172,0.46875 -4.39844,2.24609 -6.93359,3.83985 -3.80859,1.6875 -1.03125,0.28906 -0.625,-0.9961 0.43359,-1.10546 6.28125,-8.02735 1.73828,-1.28515 2.69922,-0.9961 2.16406,-1.38281 3.33203,-2.26563 1.71875,-2.53906 v -1.34765 l -1.46093,-1.63672 -2.07422,-1.20313 -2.04297,-0.51562 -0.98828,-0.86328 -2.98828,-2.78125 -3.16407,-2.50391 -2.13672,-0.14453 -1.14453,0.91797 -1.14062,1.49218 -0.19141,3.67969 -0.48047,2.63281 -1.73437,3.79297 -2.30078,2.45313 -3.32032,1.57422 -2.55468,0.94922 -1.10938,0.0508 -1.625,-1.39844 -2.42187,-3.0625 -2.02735,-1.73438 0.004,-0.72265 4.51562,-4.65625 4.96485,-5.57031 1.25,-0.3711 6.73047,-1.28515 5.1875,-2.1211 7.38281,-4.67187 3.03516,-4 0.4375,-3.07032 -0.48438,-2.70703 -7.59375,-8.67187 -4.15234,-3.33203 -1.94532,-0.45313 -2.00781,1.17578 -3.74219,4.20703 -2.5039,3.71094 -2.34766,5.92578 -2.26172,5.53907 -1.97656,2.64843 -3.39453,1.3086 -3.03516,0.0625 -0.69531,-0.24219 0.19141,-1.76953 1.35156,-3.48438 0.38672,-5.03906 0.38281,-1.16016 c 0,0 0.16406,-4.23828 0.21094,-4.8164 0.0469,-0.57813 -0.39453,-1.87891 -0.39453,-1.87891 0,0 -4.40235,-3.59765 -6.84766,-5.24219 -2.44531,-1.64062 -6.51562,-3.42187 -6.51562,-3.42187 0,0 -2.75782,-0.43359 -3.48047,-0.43359 -0.72266,0 -1.82032,0.80468 -1.82032,0.80468 l -0.57812,3.375 0.96094,2.00391 c 0,0 7.25781,9.39062 7.97656,10.87109 0.72266,1.48047 1.61328,4.3125 2.5625,5.89844 0.94922,1.58594 3.29687,3.44531 3.29687,3.44531 l -0.0312,1.03907 -0.67578,0.38671 -1.0664,0.55079 -6.97657,0.0664 -4.42968,0.0977 -2.08985,-0.19531 -3.18359,0.3125 -2.73438,-0.21094 -1.63671,0.14844 -2.32813,-0.40625 -2.79687,0.29296 -6.25,-0.0898 -1.60938,0.99609 -0.99609,2.07032 0.86328,2.21484 3.5664,4.14063 3.75391,3.5 1.97656,1.32031 2.47657,0.0273 3.02343,-1.42969 7.98047,-2.71093 10.50391,-2.61719 5.23437,-0.78906 1.92969,-0.0156 1.07813,1.20703 -0.33985,0.96094 -3.41797,5.32813 -0.91797,0.29296 -1.10546,-0.38671 -1.78516,-0.96094 -1.41406,-0.46875 -0.9961,-0.22656 -0.80859,0.5625 -2.28516,1.99609 -0.30859,1.91016 1.09375,4.14062 0.91406,2.76172 -0.23828,3.82422 -0.94922,0.53125 -0.96094,-0.61328 -1.6875,-1.39844 -1.66796,-1.33203 -1.625,-0.85547 -0.99219,0.66016 -1.46875,2.70703 -1.21875,0.79687 -0.72266,-0.41797 -1.01172,-0.72265 -2.26562,-2.35938 -3.33594,-2.89062 -4.14453,-3.12891 -1.92578,-1.63672 -1.70313,-0.9414 -1.04687,0.24218 -1.06641,1.29688 -0.14844,1.93359 0.75782,2.77735 1.99609,5.74609 1.03516,3.83594 -0.24219,0.77343 -1.92578,1.54297 -3.39063,1.30078 -0.19531,1.34766 1.83203,1.39844 4.4375,3.83594 5.3711,5.39453 2.05859,0.13281 5.24609,-4 4.09375,-4.65625 4.42969,-3.42188 1.65625,-0.57812 1.09375,1.05859 0.38281,2.63672 -0.44531,5.76172 -1.0625,0.86719 -2.21484,0.55859 -2.48047,0.85547 -5.36719,1.58984 -6.85547,2.10547 -5.78125,1.58985 -4.57422,0.91406 -5.34765,1.25391 -5.66797,1.16015 -5.54297,1.33203 -5.36719,0.95703 -6.10547,0.94141 -2.3125,0.48438 -0.38672,1.49218 -0.24218,2.30078 1.43359,1.39454 8.78516,4.94921 4.51172,1.23438 2.52343,0.22656 2.50782,-0.24219 4.17578,-2.16796 5.67578,-3.21094 4.39844,-2.34766 4.67187,-1.99219 9.57031,-4.51171 6.55078,-2.55469 2.53907,-1.42969 1.92578,-0.24609 0.82422,0.77343 0.21093,3.35157 -0.6289,1.41406 -2.3125,2.50391 -3.3086,1.58984 -3.6289,1.86719 -5.44141,3.09375 -7.95312,4.80468 -8.23828,6.64454 -4.89844,4.37109 -3.07031,2.98437 v 1.4336 l 1.8164,1.64062 2.67188,1.38282 2.21484,0.46875 3.5,-0.51563 8.32031,-2.53516 9.13672,-3.70703 10.4336,-3.71093 1.16015,0.24218 0.17969,1.28516 -0.85156,1.08203 -0.52735,1.53906 1.01563,0.91797 v 1.19141 l -0.27344,3.11719 0.19531,2.3164 c 0,0 -0.16797,1.53906 -0.16797,1.92578 0,0.38282 0.1211,2.66797 0.1211,2.66797 l -0.0977,2.57422 -0.16406,4.25 0.57812,2.38672 -0.0664,1.125 -0.35547,2.41016 -0.1875,4.4375 0.77344,2.44921 0.28515,2.22657 2.47266,2.53906 1.69922,1.22266 1.22656,-0.26172 4.30469,-4.30469 1.71484,-2.76953 0.76953,-2.37891 0.48438,-1.96875 0.67187,-1.63281 0.13282,-3.63281 0.38671,-1.35157 0.35547,-2.30859 -0.20312,-10.18359 -0.28906,-1.70313 0.1914,-2.15625 0.28906,-9.29687 0.16407,-2.71875 1.57422,-1.10547 2.69531,-1.21875 3.17969,-0.86719 8.15625,-2.76172 3.69531,-1.53906 2.10547,-1.80469 0.61328,-1.89844 -0.50781,-1.61718 -5.41407,-3.30078 -5.80859,-3.71875 -1.97656,-1.20313 -0.91797,-0.94922 0.20703,-1.13281 c 0,0 1.61719,-0.93359 3.32031,-1.76953 1.88672,-0.92188 3.8711,-1.75 3.8711,-1.75 l 7.87109,-3.40235 7.32422,-3.35937 6.82422,-3.0625 2.48828,-1.09375 1.49609,-1.6875 z m 0,0"
         id="path62" />
      <path
         style="fill:#f31700;fill-opacity:1;fill-rule:evenodd;stroke:none"
         d="m 989.54687,374.19141 -1.49609,5.25 -0.85937,3.89062 -1.14063,3.26563 -2.45703,2.24609 -3.03516,1.78516 -2.02343,1.05859 -0.66016,0.0508 -1.3125,-1.20703 -0.14453,-1.39453 0.43359,-3.7461 -0.27734,-3.63281 -0.043,-2.35937 0.71094,-1.83203 3.80859,-3.61329 4.91406,-3.35937 2.67578,-1.76563 1.38672,-0.0976 0.41797,1.38281 z m 27.39843,-19.23438 -2.1836,-2.14844 -3.3125,-1.15625 h -2.6953 l -5.875,0.24219 -4.09374,1.60547 -5.75,3.56641 -5.125,3.30859 -5.33204,3.75781 -2.90234,2.13281 -0.91406,0.004 -0.75781,-1.03125 0.17968,-3.96484 0.70703,-2.53907 0.082,-2.58593 -0.28516,-2.1211 0.82031,-3.37109 1.26563,-4.14844 -0.0508,-3.30469 -2.30079,-2.32812 -3.89843,-2.60156 -3.51563,-1.78907 -3.10156,-1.70312 -1.80078,0.32422 -3.15235,2.77344 -4.52734,4.94531 -0.0742,1 0.64063,2.68359 1.52734,3.23438 2.07422,4.55859 0.94141,2.66797 0.67578,7.59375 0.82031,8.57031 0.27344,2.25 -0.17969,2.26953 -14,13.05469 -1.25781,0.13281 -1.03516,-1.26562 -1.85937,-4.27344 -1.83204,-5.01172 -0.86718,-3.37109 -1.92578,-2.88672 -0.67188,-2.44531 -2.47656,-0.71485 -1.73438,1.15625 -1.92578,4.27735 -1.86719,4.98437 -1.15625,4.75391 -1.93359,5.97656 -1.15625,4.01563 -0.375,3.37109 0.86719,3.47656 2.99219,2.98438 3.72656,2.83203 3.94922,2.28125 2.3125,0.67578 2.76172,-0.77344 2.79687,-3.85156 3.94531,-5.12891 3.95313,-5.07812 5.55859,-5.69531 0.96094,-1.0586 0.92969,-0.15234 0.92187,0.74609 0.19531,9.91016 -1.0625,29.10547 -0.78125,4.5 -0.89843,6.42187 -0.77344,7.42188 0.25391,4.10156 0.99218,3.90234 0.25782,1.9336 1.42187,2.3125 1.20313,2.47656 3.68359,4.10937 1.63672,0.77344 1.63281,-0.1289 2.78125,-1.80079 1.55859,-3.68359 0.8086,-4.53516 -0.12891,-11.47265 -0.51172,-2.19531 V 432.504 l -0.25781,-1.07032 -0.1875,-8.01953 -0.24219,-1.30078 -0.35547,-0.37109 -0.0625,-0.72266 0.45704,-1.69922 -0.22266,-16.4414 0.54687,-1.07813 1.1875,-0.93359 1.20313,0.33593 1.22656,0.0977 2.64844,-0.14453 2.62891,-1.17969 5.57812,-2.6289 4.57813,-1.6875 1.79296,-0.82032 3.80472,-4.22656 0.1953,-1.875 -1.4336,-1.58203 -4.53126,-3.30859 -0.67187,-0.91407 0.1289,-2.39453 1.64063,-3.35156 4.2383,-4.67188 4.461,-3.76171 4.621,-2.32422 2.5118,-1.25391 3.2734,-2.50781 1.7227,-2.7461 0.3398,-2.10546 z m 0,0"
         id="path64" />
      <path
         style="fill:#f31700;fill-opacity:1;fill-rule:evenodd;stroke:none"
         d="m 1149.4805,380.04297 -2.4258,-4.14063 -2.0703,-2.83984 -0.1446,-5.10547 -1.3867,-1.01562 -0.9375,0.80859 -0.289,4.93359 -1.4649,3.90235 -1.8789,3.94922 -2.5859,2.82421 -1.0235,0.72266 -0.6796,-0.625 -0.1758,-1.80078 0.2578,-5.13281 1.0976,-7.4336 0.6758,-6.08984 1.5899,-6.12109 1.1211,-8.47266 -0.8633,-4.08594 -2.2305,-3.80078 -3.3867,-3.14844 -3.3359,-1.20312 -3.1954,-1.21485 -2.9375,-0.67578 -1.8281,1.67188 -1.1094,2.47265 -0.2265,3.88672 0.6289,3.61328 0.8203,3.69532 0.8164,4.57812 0.1602,7.05469 0.4336,8.10937 -0.4844,3.71094 -0.1289,13.34375 0.098,6.64453 -0.4062,3.33985 -0.8321,1.02734 -6.3398,4.30078 -1.8633,1.02735 -0.5976,-0.34375 -0.051,-0.91797 1.2773,-2.08985 1.1563,-2.10547 0.1875,-3.80859 -0.4805,-3.01953 -2.3398,-3.83984 -1.7657,-2.85938 -1.2343,-2.53906 0.1718,-2.34375 1.3477,-3.2461 1.7891,-4.85156 0.8789,-4.26953 -0.4336,-3.98437 -1.9961,-3.35547 -4.2031,-4.42969 -3.6602,-2.69922 -2.9727,-1.41406 -2.457,0.23828 -1.4609,1.28906 -0.059,2.45703 0.125,1.25391 0.6406,1.99219 2.4102,5.15625 3.9492,5.63672 2.4336,3.16406 0.4336,1.8789 -0.9141,4.81641 -1.1094,2.46094 -0.4804,2.69531 1.0156,3.66406 0.7695,3.90235 0.8828,3.65625 0.9492,3.61718 -0.3125,3.5625 -0.7578,2.94141 -3,5.49609 -1.3672,2.85938 -0.062,1.76953 1.5079,1.92578 1.914,0.83985 2.9063,0.0625 3.6601,-1.17579 5.668,-4.35156 3.4531,-3.45703 0.9649,-0.14453 0.1328,1.0625 -0.1953,13.21094 -0.094,15.57031 -0.1133,19.76562 0.051,5.19922 1.0469,1.40235 2.8906,0.46484 0.9492,-0.30469 2.3125,-2.32422 2.3321,-3.61718 0.4453,-2.57032 0.6719,-2.39453 0.8203,-4.03515 0.414,-3.53516 0.3867,-3.05469 0.336,-2.64843 -0.5313,-0.96485 0.035,-4.2539 0.3086,-3.21485 -0.031,-2.9375 -0.3398,-3.1914 0.1445,-2.75391 v -1.65234 l 0.031,-6.53907 0.289,-2.29297 0.035,-9.9375 0.4492,-3.80468 0.7344,-1.82813 3.8672,-3.0664 9.5078,-8.70313 1.4805,-2.16797 0.207,-1.64062 z m -50.6719,4.55859 -3.2734,3.82031 -3.2305,3.9375 -4.9609,4.4961 -1.2696,1.44531 -1.0781,-0.32031 -0.4805,-0.98438 0.8828,-3.43359 1.5118,-6.61719 2.1015,-5.8164 3.2891,-5.29688 1.3984,-2.40625 -0.1601,-2.07031 -2.0078,-2.97266 -1.4922,-1.57422 -1,-1.85156 -3.1133,-2.18359 -2.7031,-1.44922 -1.5508,-0.23047 -2.6602,1.58203 -1.4414,3.48047 -1.0781,3.52344 -1.543,2.3125 -4.3672,4.23828 -8.3047,6.03515 -8.5234,5.51954 -8.2187,4.67578 -5.961,3.68359 -1.1562,1.125 0.5117,0.86719 1.5469,1.28906 2.1328,1.53516 1.7617,0.77343 1.9375,0.76954 2.0117,-0.25782 h 1.4141 l 1.4179,0.82032 1.8868,-0.38282 3.082,-1.54297 6.6797,-6 4.3672,-4.71875 5.7734,-5.34765 1.2422,-0.47656 0.6953,0.82421 -0.4297,7.89063 -0.7734,2.31641 0.1289,3.82031 -0.25,10.40234 -2.5703,3.08203 -1.6328,-0.25781 0.207,-1.10156 0.7734,-0.78516 -0.332,-2.64062 -1.1562,-2.97657 -1.1094,-0.38281 -1.3477,0.48047 -2.957,4.14453 -3.7422,4.60938 -2.6836,3.32422 -0.8203,2.57031 -0.2539,2.78906 0.9141,3.3125 0.3359,2.08594 0.1953,1.58984 1.043,1.91406 0.9179,0.76954 1.5274,-0.17969 1.5742,-1.14063 4.4141,-4.1914 4.4687,-4.4336 1.1875,-0.32422 0.5313,0.70704 0.1757,3.16796 0.047,3.38282 0.7578,1.0625 2.6953,1.42968 1.4922,0.91407 2.3321,-0.0586 1.9531,-0.63281 1.6875,-1.34766 0.7109,-1.23828 -0.5781,-2.04297 -0.3359,-1.82812 0.1445,-1.87891 0.2539,-1.90234 -0.3398,-2.9375 -0.1446,-3.75781 0.3164,-2.60157 0.8282,-2.25 2.25,-2.9414 5.2851,-6.89063 4.4805,-6.66406 2.9375,-5.20312 0.4805,-1.91016 -0.7735,-2.25 z m -42.7656,-21.66797 1.9218,-0.73437 3.379,-0.38281 3.8515,-2.1836 6.6797,-3.39062 8.9883,-4.46094 3.3476,-0.76953 4.8672,-0.89844 2.5742,-0.51953 2.5625,-0.64844 1.8047,-1.75781 1.9649,-3.22266 0.457,-4.66015 -0.8086,-3.13672 -1.664,-3.07813 -2.9102,-3.2539 -1.7617,-0.64453 -2.3594,1.63281 -0.3047,2.62109 -11.6211,8.25781 -7.2304,5.39454 -6.6446,6.375 -6.0351,6.29296 -2.9883,2.35547 v 0.77344 l 0.7305,0.25391 z m 0,0"
         id="path66" />
      <path
         style="fill:#f31700;fill-opacity:1;fill-rule:evenodd;stroke:none"
         d="m 1301.2109,420.67969 -2.5781,0.34765 -6.5117,0.76953 -7.5898,-0.64843 -3.4258,-0.64844 -3.4297,-1.41016 -5.1016,-3.08203 -10.0664,-7.98047 -0.1758,-0.76562 3.9102,-7.26172 3.4648,-5.78516 2.3203,-2.44531 0.6915,-3.09766 0.5117,-0.73046 -0.8594,-1.84766 -3.2109,-2.82813 -3.0821,-1.28906 -2.1054,-0.77344 -1.9649,0.0859 -1.1601,0.51563 h -1.0274 l 0.1289,-2.92578 0.3828,-3.28516 3.5508,-7.60938 3.336,-6.98046 1.9257,-3.85157 2.9141,-2.35547 2.1836,-1.11718 1.7578,-1.2461 4.0703,-2.91406 1.0625,-1.41016 -0.2187,-1.80468 -3.1328,-3.94922 -1.7579,-0.47266 -0.8984,-0.46875 -0.5117,-2.02344 -2.0156,-2.5664 -3.2657,-2.53125 -5.4023,-2.875 -2.2695,-0.47266 -2.1055,1.16797 -0.3906,2.875 0.2578,4.71094 -1.293,5.40234 -1.5273,5.92188 -3.1719,3.07812 -1.6719,0.73438 -5.9101,4.11328 -6.293,4.64453 -6.1719,3.73047 -5.2265,3.00781 0.2578,1.76172 2.2734,1.28906 1.5898,0.64063 2.6993,0.72656 2.0547,0.26562 1.7968,0.13282 2.2735,-1.11719 1.9648,-1.02734 6.8125,-6.08594 1.5078,-0.77344 0.293,0.55078 -0.3906,1.66406 -1.5391,5.3125 -2.1836,7.32032 -1.8867,3.98828 v 1.66797 l 0.5273,2.02734 1.0352,1.37109 1.5,1.92579 1.6797,0.51562 1.125,-0.47266 2.4492,-1.89453 1.707,-1.16015 1.4141,0.52343 0.2578,1.15625 -0.8672,2.95313 -4.1015,7.5 -0.6446,-0.12891 -3.3594,-3.00781 -2.1835,-1.02734 -4.2032,-1.97657 -1.7968,-0.60546 -2.0938,0.77734 v 2.05469 l 0.9883,1.9375 3.4883,4.92968 1.9257,3.16407 1.8282,2.69922 0.6367,1.24609 -0.3867,0.89844 -1.8516,3.94531 -7.5273,9.69531 -4.2032,3.6211 -4.8398,3.14453 -4.2461,1.1914 -2.1328,-0.62109 -1.0742,-1.48047 0.289,-20.54687 0.5157,-13.61329 1.2812,-11.39843 2.3125,-11.52735 0.8086,-6.73047 1.2852,-3.57031 3.9023,-3.6875 4.7539,-3.9414 3.082,-2.58204 0.1211,-2.27734 -3.1718,-4.10937 -0.9805,-0.12891 -1.25,1.15625 -0.8672,-0.51172 0.7773,-1.37891 -0.9101,-2.10546 -5.2656,-5.52344 -5.6485,-3.46485 -1.5429,0.39063 -2.5704,2.17969 -0.3828,4.16015 -0.8203,7.58203 -1.1992,5.73047 -10.7344,7.26172 -3.082,0.37891 -2.3281,1.53906 0.1914,1.14844 2.7656,4.0625 3.8516,3.86719 2.2539,0.51953 1.6133,-0.39844 1.5429,-2.0625 h 1.3477 l -0.3281,1.55078 -0.5665,1.94141 -0.6289,6.75781 -1.3515,3.85547 -4.8164,5.19922 -5.3399,5.76953 -6.1718,7.33594 -6.75,7.72265 -2.3711,2.3125 -2.3868,0.82813 -4.6992,3.47656 -0.4453,1.48047 0.3867,0.97265 4.4297,4.44532 2.5781,0.97265 3.0274,0.57813 1.5976,-0.91406 6.0977,-5.32422 3.7852,-4.44141 1.5429,-4.09375 2.5039,-3.92969 3.0821,-5.34375 2.8984,-5.08984 0.8359,-0.96094 0.8985,0.25781 -0.4375,3.13282 -1.1094,9.09375 -0.3867,20.89453 -0.7539,2.14453 -1.4766,1.33203 -2.6641,0.12891 h -3.2109 l -4.6719,-1.04688 -1.3632,0.22656 -2.3165,1.54297 0.125,1.25 1.8047,1.02735 2.5743,1.12109 1.9257,0.89844 2.1485,0.85937 4.0781,2.3125 2.5273,1.41407 1.9297,1.28515 2.1407,1.625 0.8593,1.5 1.6367,0.25781 2.6993,-1.42968 3.4257,-3.98047 0.7735,-4.1211 0.7734,-0.25781 1.8946,2.19531 2.0585,1.88282 1.0274,0.38281 1.6289,-0.25781 4.9766,-2.69532 7.5781,-6.03515 8.9375,-8.34375 3.8125,-5.23828 0.8594,-0.6875 1.2851,0.77343 4.3672,4.83594 3.9805,4.96875 2.3554,3.42969 1.8008,1.41016 1.5,0.25781 3.2617,0.0391 4.3672,-1.07812 5.7383,-1.92969 6.4883,-2.92188 7.9609,-3.72265 4.293,-2.27735 0.7695,-1.63672 z m 0,0"
         id="path68" />
      <path
         style="fill:#f31700;fill-opacity:1;fill-rule:evenodd;stroke:none"
         d="m 1432.6406,434.26953 -2.0312,-1.1875 -4.5,-0.32031 -4.2071,-0.28906 -4.6601,-1.34766 -4.5977,-1.67578 -3.8711,-2.03906 -5.3711,-4.1836 -6.4218,-6.4414 -4.1328,-5.83985 -2.125,-3.24609 -1.5118,-1.70313 -1.0586,-0.93359 -1.3007,-0.19922 -1.3047,0.19922 -1.6446,1.70703 0.067,1.60547 0.8828,1.80078 1.3867,3.79297 1.5156,3.71094 2.4766,5.52734 2.8672,5.71484 1.8476,4.3086 2.793,5.65625 1.0586,2.79297 1.0273,1.82031 1.8008,1.54297 1.6094,0.83594 1.7578,1.21875 1.9609,-0.0703 2.1563,-0.83203 3.2461,-1.73437 3.8242,-1.125 2.6484,-1.23438 3.836,-1.80078 3.8242,-1.09375 3.1797,-1.19922 1.9922,-1.15625 1.4257,-1.16797 z m -43.0976,-39.12109 13.2968,-8.05078 5.4532,-2.27344 4.0468,-1.54297 1.5391,-2.50391 -0.4023,-2.45312 -3.1407,-2.83985 -4.2343,-1.55078 -3.6016,0.38672 -3.293,1.625 -2.5039,3.27344 -7.8164,5.42969 -1.6406,0.67578 -1.0352,-1.36328 0.7774,-9.95703 1.9258,-9.00391 0.8398,-4.70703 1.1524,-2.3125 v -2.96485 l -0.9688,-2.82812 -3.0234,-3.11328 -7.2696,-5.6836 -5.4765,-4.3789 -2.0782,-0.42969 -2.25,2.32031 -0.1914,2.98828 0.3477,2.28907 0.031,1.71484 1.0391,3.83594 0.4024,13.98828 0.094,8.94922 -1.6367,13.77734 -0.9219,6.07031 -10.8711,6.44922 -11.0625,6.44141 -7.2617,3.02344 -6.875,1.15234 -5.082,1.36719 -1.3516,1.74219 0.9063,2.32031 4.957,3.27344 4.7578,3.60156 3.8516,2.3125 3.5429,1.15625 2.5039,-0.57813 4.9883,-4.37109 5.875,-5.10547 4.832,-3.76562 1.3477,-0.38672 0.5859,1.23047 -0.074,2.12109 -2.6367,4.89844 -2.5156,4.51562 -10.7344,10.97656 -6.3008,4.1211 -2.457,0.9414 -7.8086,3.84375 -4.1797,1.67188 -1.5,0.90625 -0.2578,1.09766 0.9531,0.9375 9.0039,0.32421 7.2617,-0.51953 5.5938,-1.53125 4.3711,-1.86718 4.3125,-2.51172 6.7812,-6.14453 6.2618,-8.78125 6.164,-13.10547 4.9492,-15.35547 1.1563,-1.46485 3.082,-1.82812 z m 0,0"
         id="path70" />
      <path
         style="fill:#f31700;fill-opacity:1;fill-rule:evenodd;stroke:none"
         d="m 1515.125,363.85547 -1.1055,1.01172 -2.6367,-0.3711 -2.2656,-0.72265 -1.207,-1.76953 -0.4805,-1.44532 0.6211,-2.07812 2.3633,-3.08594 1.3984,-0.36719 1.1797,-0.23828 1.1562,0.96094 1.1563,2.11719 0.3359,2.48828 0.2071,2.05469 z m 46.832,-23.92578 -1.5312,-3.51172 -1.875,-2.84766 -2.8477,-2.68359 -3.3711,-1.76563 -3.6914,-1.78515 -3.4218,-0.76953 -2.4063,0.67187 -5.2031,3.17969 -6.6797,3.17969 -4.543,2.625 -4.8984,2.4414 -3.1641,3.22656 -1.6719,0.69922 -1.4453,-0.0703 -0.7578,-0.98047 0.3399,-0.80469 1.4453,-0.96484 3.1328,-3.5 2.1055,-2.23437 1.2031,-1.75391 0.1328,-1.40234 -0.7578,-1.86329 -2.586,-2.84765 -3.8359,-3.11328 -3.0351,-1.96094 -2.2149,-0.43359 -1.7383,0.38671 -1.4922,1.875 -0.3203,1.625 -0.098,2.98438 -3.1328,5.76562 -1.8477,1.63672 -1.5273,0.12891 -2.9844,-0.61328 -5.4961,-1.05469 -2.2305,-0.24219 -1.5859,0.66016 -0.8672,2.02344 0.3203,1.84765 1.8789,1.30078 3.6953,2.5 2.4102,2.07032 0.707,1.59375 -0.7656,1.35156 -5.6602,5.02344 -1.9179,0.69922 -0.9805,0.38281 -0.9648,-0.28906 -0.8907,-1.32422 -1.1406,-2.00782 -2.9883,-4.30078 -3.1328,-4.15625 -3.3555,-2.89062 -3.3086,-2.88672 -3.4648,-1.68359 -2.9883,-1.25391 -2.2461,0.0625 -1.3008,0.91797 -0.3828,1.47656 0.918,1.5625 4.2422,4.28516 4.9922,5.47656 3.7422,6.88672 1.9257,4.8164 0.836,2.15625 -0.3828,0.78907 -1.125,0.17968 -0.8672,-1.01171 -1.8516,-2.40625 -2.6797,-2.49219 -3.2265,-2.53906 -2.5078,-1.625 -2.961,-0.46875 -1.6719,0.51562 -0.3867,1.64063 0.711,1.97265 4.8203,6.11719 1.7226,3.98828 6.8086,15.28516 0.2696,0.6875 2.4257,3.45312 1.7657,1.21094 1.2734,-0.45313 1.1094,-1.20312 0.5469,-2.65234 -0.3204,-5.01172 -0.5312,-1.30078 0.625,-0.96485 1.1445,-0.51562 0.9649,0.44922 2.5507,2.58593 3.3243,2.84375 2.9297,1.01172 2.0703,-0.94922 1.6757,-2.28515 0.625,-3.5625 -0.5156,-2.57813 -1.4961,-2.26953 -0.9101,-2.05078 -2.0235,-5.10938 -1.1718,-2.16796 -0.047,-0.9375 3.2461,-3.06641 6.1211,-3.8125 2.4297,-0.90234 1.3984,0.57812 0.031,1.46484 -2.3906,3.24219 -2.3476,5.3125 -0.2422,4.35547 0.4961,2.24609 0.8672,3.66407 3.9023,2.13672 4.0469,0.99609 5.0586,0.4375 3.039,-1.45703 3.8555,-3.19531 3.2266,-4.12891 1.0586,-4.54688 -0.1446,-2.74609 -0.9648,-3.47266 -1.4297,-3.27343 -1.2539,-2.16797 -0.75,-1.04688 0.3359,-0.78906 1.7539,-1.0625 2.8125,-1.44531 2.5508,-0.76953 4.3672,-2.10547 4.6445,-1.46485 2.2657,0.38672 1.4921,1.34766 0.2383,1.6875 -1.0429,3.27734 -3.2735,5.69922 -3.9844,6.90625 -3.7421,6.01953 -3.086,4.89844 -3.664,3.04688 -4.8321,2.18359 -6.0703,3.23047 -6.5508,3.15234 -6.582,2.98438 -6.4687,3.10937 -6.0704,2.83594 -3.2031,1.42969 -0.3555,1.39843 0.5782,1.0625 3.5508,1.47657 4.1289,0.93359 2.3632,0.0469 1.3204,-0.92969 1.8945,-0.69141 4.5937,-2.77734 4.4141,-3.375 3.2812,-1.6211 3.6133,-2.23437 3.3242,-1.92578 2.168,-1.10938 1.7344,0.0469 0.9648,1.22265 -0.2422,1.44922 -1.5429,4.14063 -1.4922,3.42187 -2.3438,3.82032 -1.5468,2.71875 -1.8789,1.85937 -2.2657,1.50391 -3.7578,1.91406 -4.8008,3.35547 -2.2343,0.78515 -7.3633,3.9961 -11.9688,6.90625 -6.4531,3.51562 -6.3242,3.13282 -3.5156,1.78125 -2.4571,0.72265 -3.9062,1.4961 -2.9258,1.05859 -1.3945,1.05859 0.289,1.38672 1.9258,1.78125 6.5039,4.33203 6.6485,3.5 3.2265,1.34766 3.0352,-0.14453 2.289,-1.70313 2.6016,-2.66406 5.2695,-5.37891 6.4727,-6.89062 5.293,-4.99609 8.5156,-7.08204 2.7969,-1.63671 1.7656,-0.25782 0.9023,1.06641 0.047,1.63672 0.2109,2.86328 v 4.01562 l 0.4219,8.6875 -0.3203,13.65625 -0.8203,9.27735 -1.6914,2.17187 -3.418,1.57422 -5.9101,0.88281 -9.8789,0.0469 -0.7696,0.23047 -0.5625,1.38281 1.4141,1.25391 4.3359,1.35547 6.3164,2.13671 6.3555,2.92188 7.0195,2.16797 3.9336,0.77344 3.4531,-1.74219 2.5235,-2.77735 0.8164,-3.75 0.5312,-4.01562 -0.1914,-4.125 -0.4843,-2.49219 -0.6602,-2.76172 0.062,-2.64843 -0.7031,-2.32813 0.414,-1.86328 -0.4492,-2.18359 -0.4804,-1.92969 0.371,-3.70703 -0.5898,-6.77735 -0.2344,-14.96093 0.4649,-6.8125 1.8867,-1.49219 1.8359,-0.88672 2.1953,-0.14453 1.2852,0.72265 0.9687,1.75 -0.1796,2.79297 -0.1094,4.86328 0.914,0.82032 1.2735,-0.19141 0.8672,-0.86719 2.9218,-1.80078 5.2383,-2.69531 3.293,-0.96484 1.1406,-0.91016 1.8789,-1.35156 1.9453,-2.32813 0.4024,-1.80469 -0.8008,-1.34765 -3.4062,-2.64844 -4.2891,-2.73047 -4,-1.10937 -3.6484,-0.67188 -1.336,0.33594 -2.7461,0.66406 -1.1562,-0.19531 -0.6289,-0.91406 0.4843,-0.83985 3.375,-3.27734 5.7344,-4.42969 5.2227,-4.01562 1.8789,-1.89844 0.2656,-1.73438 -0.3281,-1.73437 -3.0821,-3.08203 -3.2734,-2.63672 -2.3476,-1.25391 -0.625,-0.78515 0.5937,-1.09766 1.7344,-1.76562 5.1953,-4.9336 2.7969,-2.22656 3.1172,-2.07031 3.871,-2.21485 3.9649,-1.97656 3.4687,-1.66797 2.6563,-1.70312 1.8594,-2.96485 0.3867,-3.51562 z m 0,0"
         id="path72" />
    </g>
    <text
       id="text3683"
       y="219.62347"
       x="8.3946247"
       style="font-style:normal;font-weight:normal;font-size:32px;line-height:1.25;font-family:sans-serif;fill:#000000;fill-opacity:1;stroke:none;stroke-width:0.75;stroke-miterlimit:4;stroke-dasharray:none"
       xml:space="preserve"><tspan
         style="font-style:normal;font-variant:normal;font-weight:normal;font-stretch:normal;font-size:32px;font-family:Helvetica;-inkscape-font-specification:Helvetica;fill:#f31801;fill-opacity:1;stroke-width:0.75;stroke-miterlimit:4;stroke-dasharray:none"
         y="219.62347"
         x="8.3946247"
         id="tspan3681"
         sodipodi:role="line">HUAZHONG UNIVERSITY SCIENCE AND TECHNOLOGY</tspan></text>
  </g>
</svg>
